<svg width="115" height="35" viewBox="0 0 115 35" fill="none" xmlns="http://www.w3.org/2000/svg"><path d="M114.144 30.058C114.144 31.8572 112.682 33.3203 110.884 33.3203H4.03037C2.22299 33.3203 0.760742 31.8572 0.760742 30.058V4.03214C0.760742 2.22379 2.22299 0.760742 4.03037 0.760742H110.875C112.682 0.760742 114.135 2.22379 114.135 4.02306L114.144 30.058Z" fill="#fff"/><path d="M110.868 34.068H4.02346C1.80738 34.068 0 32.2687 0 30.0515V4.02564C0 1.79927 1.80738 0 4.02346 0H110.868C113.093 0 114.891 1.79927 114.891 4.02564V30.0515C114.9 32.2687 113.084 34.068 110.868 34.068Z" fill="#A7A6A6"/><path d="M114.144 30.058C114.144 31.8572 112.682 33.3203 110.884 33.3203H4.03037C2.22299 33.3203 0.760742 31.8572 0.760742 30.058V4.03214C0.760742 2.22379 2.22299 0.760742 4.03037 0.760742H110.875C112.682 0.760742 114.135 2.22379 114.135 4.02306L114.144 30.058Z" fill="#010101"/><path d="M25.6571 16.8578C25.6298 14.1134 27.9004 12.7776 28.0094 12.714C26.7197 10.8329 24.7307 10.5785 24.0313 10.5603C22.3602 10.3877 20.7345 11.5599 19.8807 11.5599C19.0088 11.5599 17.701 10.5785 16.2841 10.6058C14.4586 10.633 12.7602 11.6871 11.8247 13.3319C9.89928 16.676 11.3343 21.5831 13.1871 24.2911C14.1135 25.6179 15.1943 27.09 16.6111 27.0355C17.9916 26.981 18.5093 26.154 20.1805 26.154C21.8334 26.154 22.3239 27.0355 23.7589 26.9991C25.2484 26.9719 26.1748 25.6724 27.0739 24.3366C28.1456 22.819 28.5725 21.3287 28.5907 21.2469C28.5362 21.2378 25.6843 20.1474 25.6571 16.8578ZM22.9324 8.77924C23.6771 7.85234 24.1857 6.58013 24.0404 5.29883C22.9596 5.34426 21.6155 6.04398 20.8435 6.9527C20.1532 7.75238 19.5447 9.07003 19.6991 10.3059C20.907 10.3968 22.1513 9.69705 22.9324 8.77924Z" fill="#fff"/><path d="M110.867 0H53.6392L76.0543 34.068H110.867C113.092 34.068 114.89 32.2687 114.89 30.0424V4.02564C114.89 1.79927 113.092 0 110.867 0Z" fill="url(#paint0_linear)"/><path d="M45.7026 26.8426H43.768L42.7054 23.5076H39.0271L38.019 26.8426H36.1389L39.79 15.5018H42.0424L45.7026 26.8426ZM42.3875 22.1173L41.4339 19.1548C41.334 18.8549 41.1433 18.1371 40.8617 17.0193H40.8254C40.7164 17.5009 40.5348 18.2098 40.2895 19.1548L39.345 22.1173H42.3875ZM55.0664 22.6534C55.0664 24.0438 54.685 25.1433 53.9311 25.9521C53.2591 26.67 52.4144 27.0334 51.4154 27.0334C50.3346 27.0334 49.5535 26.6518 49.0812 25.8703V30.1595H47.2647V21.3539C47.2647 20.4816 47.2375 19.5819 47.2012 18.6641H48.7996L48.8996 19.9636H48.9359C49.5444 18.9913 50.4617 18.5005 51.6969 18.5005C52.6596 18.5005 53.468 18.8822 54.1128 19.6455C54.7395 20.3998 55.0664 21.4085 55.0664 22.6534ZM53.2136 22.717C53.2136 21.9173 53.032 21.2631 52.6778 20.7451C52.2873 20.2089 51.7605 19.9363 51.0975 19.9363C50.6524 19.9363 50.2437 20.0908 49.8804 20.3816C49.5171 20.6815 49.281 21.0722 49.1629 21.5539C49.1175 21.7356 49.0812 21.9173 49.0812 22.1082V23.4713C49.0812 24.0619 49.2628 24.5708 49.6261 24.9797C49.9894 25.3887 50.4617 25.5977 51.043 25.5977C51.7241 25.5977 52.26 25.3341 52.6415 24.8071C53.0229 24.28 53.2136 23.5803 53.2136 22.717ZM64.4666 22.6534C64.4666 24.0438 64.0852 25.1433 63.3313 25.9521C62.6502 26.67 61.8146 27.0334 60.8155 27.0334C59.7347 27.0334 58.9537 26.6518 58.4814 25.8703V30.1595H56.6649V21.3539C56.6649 20.4816 56.6377 19.5819 56.6013 18.6641H58.1998L58.2997 19.9636H58.3361C58.9446 18.9913 59.8619 18.5005 61.0971 18.5005C62.0598 18.5005 62.8681 18.8822 63.513 19.6455C64.1397 20.3998 64.4666 21.4085 64.4666 22.6534ZM62.6138 22.717C62.6138 21.9173 62.4322 21.2631 62.078 20.7451C61.6874 20.2089 61.1607 19.9363 60.4977 19.9363C60.0526 19.9363 59.6439 20.0908 59.2806 20.3816C58.9173 20.6815 58.6812 21.0722 58.5631 21.5539C58.5086 21.781 58.4814 21.9628 58.4814 22.1082V23.4713C58.4814 24.0619 58.663 24.5708 59.0263 24.9797C59.3896 25.3887 59.8619 25.5977 60.4522 25.5977C61.1334 25.5977 61.6693 25.3341 62.0507 24.8071C62.4231 24.28 62.6138 23.5803 62.6138 22.717ZM74.9748 23.6621C74.9748 24.6253 74.6388 25.4159 73.9667 26.0157C73.231 26.679 72.1957 27.0062 70.8787 27.0062C69.6617 27.0062 68.6808 26.7699 67.9451 26.2974L68.3629 24.7798C69.1622 25.2524 70.0341 25.4886 70.9877 25.4886C71.6689 25.4886 72.2047 25.3341 72.5862 25.0252C72.9677 24.7162 73.1584 24.3073 73.1584 23.7893C73.1584 23.3259 72.9949 22.9442 72.6861 22.6261C72.3682 22.3081 71.8505 22.0173 71.1239 21.7538C69.144 21.0177 68.145 19.9272 68.145 18.5096C68.145 17.5827 68.4992 16.8194 69.1985 16.2196C69.8978 15.629 70.8242 15.3291 71.9777 15.3291C73.0131 15.3291 73.8668 15.5108 74.548 15.8652L74.0939 17.3465C73.449 17.0012 72.7315 16.8285 71.9141 16.8285C71.2693 16.8285 70.7697 16.983 70.4155 17.301C70.1158 17.5827 69.9614 17.919 69.9614 18.3279C69.9614 18.7732 70.134 19.1457 70.4791 19.4365C70.7788 19.7091 71.3328 19.9999 72.123 20.3089C73.0948 20.6997 73.8123 21.1631 74.2755 21.6902C74.7387 22.2172 74.9748 22.8806 74.9748 23.6621ZM80.9873 20.0272H78.9892V23.9983C78.9892 25.007 79.3434 25.5159 80.0519 25.5159C80.3788 25.5159 80.6422 25.4886 80.8602 25.4341L80.9147 26.8154C80.5605 26.9517 80.0882 27.0153 79.5069 27.0153C78.7894 27.0153 78.2263 26.7972 77.8267 26.361C77.4089 25.9157 77.2 25.1797 77.2 24.1437V20.0181H76.0102V18.655H77.2V17.1556L78.9801 16.6195V18.655H80.9783L80.9873 20.0272ZM89.997 22.6898C89.997 23.9438 89.6337 24.9797 88.9162 25.7885C88.1624 26.6154 87.1724 27.0334 85.9281 27.0334C84.7292 27.0334 83.7756 26.6336 83.0581 25.843C82.3497 25.0433 81.9864 24.0438 81.9864 22.8351C81.9864 21.572 82.3588 20.527 83.0853 19.7273C83.821 18.9186 84.811 18.5187 86.0553 18.5187C87.2541 18.5187 88.2168 18.9186 88.9434 19.7091C89.6518 20.4634 89.997 21.463 89.997 22.6898ZM88.1169 22.7261C88.1169 21.981 87.9535 21.3358 87.6265 20.7996C87.245 20.1544 86.7001 19.8273 85.9917 19.8273C85.2651 19.8273 84.7111 20.1544 84.3296 20.7996C84.0027 21.3358 83.8392 21.99 83.8392 22.7625C83.8392 23.5167 84.0027 24.1528 84.3296 24.6889C84.7202 25.3341 85.2742 25.6613 85.9826 25.6613C86.6729 25.6613 87.2178 25.3341 87.6174 24.6708C87.9535 24.1255 88.1169 23.4803 88.1169 22.7261ZM95.9005 20.2635C95.7097 20.2271 95.519 20.2089 95.3283 20.2089C94.6925 20.2089 94.193 20.4452 93.8479 20.9359C93.5482 21.363 93.3938 21.8992 93.3938 22.5534V26.8426H91.5773V21.2449C91.5773 20.3907 91.5591 19.5274 91.5228 18.6732H93.1031L93.1667 20.2362H93.2212C93.4119 19.7001 93.7116 19.2639 94.1294 18.9367C94.5109 18.655 94.965 18.5005 95.4373 18.5005C95.6008 18.5005 95.7552 18.5096 95.8914 18.5369L95.9005 20.2635ZM104.02 22.3626C104.029 22.6352 104.002 22.9169 103.956 23.1896H98.5071C98.5253 23.9983 98.7886 24.6162 99.2973 25.0433C99.7605 25.425 100.351 25.6158 101.077 25.6158C101.886 25.6158 102.621 25.4886 103.284 25.2342L103.566 26.4973C102.794 26.8335 101.877 27.0062 100.823 27.0062C99.5516 27.0062 98.5616 26.6336 97.835 25.8885C97.1084 25.1433 96.7542 24.1437 96.7542 22.8897C96.7542 21.6538 97.0903 20.627 97.7623 19.8091C98.4708 18.9367 99.4244 18.5005 100.623 18.5005C101.804 18.5005 102.694 18.9367 103.293 19.8091C103.784 20.4906 104.02 21.3448 104.02 22.3626ZM102.294 21.8992C102.303 21.363 102.185 20.8996 101.94 20.4997C101.622 19.9908 101.141 19.7455 100.496 19.7455C99.9058 19.7455 99.4153 19.9908 99.052 20.4816C98.7523 20.8723 98.5707 21.3448 98.5162 21.8901L102.294 21.8992Z" fill="#fff"/><path d="M38.5 11.4959C37.9914 11.4959 37.5554 11.4686 37.1921 11.4323V5.94357C37.7007 5.86178 38.2184 5.82543 38.727 5.82543C40.8069 5.82543 41.7696 6.85229 41.7696 8.52434C41.7696 10.4508 40.6434 11.4959 38.5 11.4959ZM38.7997 6.53424C38.5182 6.53424 38.282 6.55241 38.0822 6.58876V10.7598C38.1912 10.778 38.4001 10.7871 38.6816 10.7871C40.044 10.7871 40.8251 10.0056 40.8251 8.5516C40.8251 7.25213 40.1257 6.53424 38.7997 6.53424ZM44.7577 11.5322C43.5861 11.5322 42.8232 10.6598 42.8232 9.46941C42.8232 8.22446 43.6042 7.343 44.8213 7.343C45.9747 7.343 46.7558 8.17903 46.7558 9.4058C46.7558 10.6598 45.9566 11.5322 44.7577 11.5322ZM44.794 7.99728C44.1492 7.99728 43.7405 8.59704 43.7405 9.44215C43.7405 10.2691 44.1583 10.8688 44.794 10.8688C45.4298 10.8688 45.8476 10.2237 45.8476 9.42398C45.8385 8.60612 45.4207 7.99728 44.794 7.99728ZM53.4495 7.42479L52.1961 11.4413H51.3787L50.861 9.69659C50.7339 9.26949 50.6249 8.83331 50.534 8.39712H50.5159C50.4523 8.83331 50.3251 9.26949 50.198 9.69659L49.644 11.4413H48.8175L47.6368 7.42479H48.5541L49.0082 9.3331C49.1172 9.78746 49.208 10.2146 49.2807 10.6235H49.2988C49.3624 10.2873 49.4714 9.86016 49.6258 9.34219L50.198 7.42479H50.9246L51.4695 9.30584C51.6058 9.7602 51.7057 10.2055 51.7965 10.6326H51.8237C51.8782 10.2237 51.969 9.77838 52.0962 9.30584L52.5866 7.42479H53.4495ZM58.0724 11.4413H57.1823V9.13318C57.1823 8.42438 56.9098 8.06998 56.374 8.06998C55.8472 8.06998 55.4839 8.52434 55.4839 9.0514V11.4413H54.5847V8.57886C54.5847 8.22446 54.5757 7.8428 54.5484 7.43387H55.3295L55.3749 8.0518H55.4022C55.6383 7.6247 56.1287 7.35209 56.6737 7.35209C57.5183 7.35209 58.0724 7.99728 58.0724 9.04231V11.4413ZM60.5337 11.4413H59.6436V5.58008H60.5337V11.4413ZM63.7942 11.5322C62.6226 11.5322 61.8597 10.6598 61.8597 9.46941C61.8597 8.22446 62.6407 7.343 63.8578 7.343C65.0112 7.343 65.7923 8.17903 65.7923 9.4058C65.7923 10.6598 64.984 11.5322 63.7942 11.5322ZM63.8214 7.99728C63.1766 7.99728 62.7679 8.59704 62.7679 9.44215C62.7679 10.2691 63.1948 10.8688 63.8124 10.8688C64.439 10.8688 64.8659 10.2237 64.8659 9.42398C64.8659 8.60612 64.4481 7.99728 63.8214 7.99728ZM69.3072 11.4413L69.2436 10.9779H69.2163C68.9439 11.3505 68.5442 11.5322 68.0447 11.5322C67.3272 11.5322 66.8186 11.0233 66.8186 10.3509C66.8186 9.36036 67.6814 8.84239 69.1618 8.84239V8.77878C69.1618 8.25172 68.8803 7.98819 68.3263 7.98819C67.9267 7.98819 67.5815 8.08815 67.2727 8.28807L67.0911 7.6974C67.4635 7.46113 67.9267 7.35209 68.4716 7.35209C69.5251 7.35209 70.0519 7.90641 70.0519 9.01505V10.4963C70.0519 10.9052 70.0701 11.2142 70.1064 11.4595L69.3072 11.4413ZM69.1891 9.44215C68.1991 9.44215 67.6996 9.67842 67.6996 10.2509C67.6996 10.6689 67.9539 10.8779 68.3081 10.8779C68.7622 10.8779 69.18 10.5326 69.18 10.0601V9.44215H69.1891ZM74.3842 11.4413L74.3388 10.7961H74.3115C74.0572 11.2869 73.6213 11.5322 73.0218 11.5322C72.05 11.5322 71.3325 10.678 71.3325 9.4785C71.3325 8.22446 72.0773 7.33391 73.0945 7.33391C73.6303 7.33391 74.0118 7.51566 74.2298 7.87915H74.2479V5.58008H75.138V10.36C75.138 10.7507 75.1471 11.1142 75.1743 11.4413H74.3842ZM74.257 9.07866C74.257 8.51525 73.8846 8.03363 73.3125 8.03363C72.6495 8.03363 72.2498 8.6243 72.2498 9.45124C72.2498 10.26 72.6676 10.8143 73.2943 10.8143C73.8574 10.8143 74.2479 10.3236 74.2479 9.75111L74.257 9.07866ZM80.8144 11.5322C79.6428 11.5322 78.8799 10.6598 78.8799 9.46941C78.8799 8.22446 79.661 7.343 80.878 7.343C82.0315 7.343 82.8125 8.17903 82.8125 9.4058C82.8125 10.6598 82.0133 11.5322 80.8144 11.5322ZM80.8508 7.99728C80.2059 7.99728 79.7972 8.59704 79.7972 9.44215C79.7972 10.2691 80.215 10.8688 80.8417 10.8688C81.4684 10.8688 81.8952 10.2237 81.8952 9.42398C81.8861 8.60612 81.4774 7.99728 80.8508 7.99728ZM87.6171 11.4413H86.727V9.13318C86.727 8.42438 86.4545 8.06998 85.9187 8.06998C85.3919 8.06998 85.0286 8.52434 85.0286 9.0514V11.4413H84.1386V8.57886C84.1386 8.22446 84.1295 7.8428 84.1022 7.43387H84.8833L84.9287 8.0518H84.956C85.1921 7.6247 85.6826 7.35209 86.2275 7.35209C87.0721 7.35209 87.6262 7.99728 87.6262 9.04231V11.4413H87.6171ZM93.6205 8.09724H92.6396V10.051C92.6396 10.5508 92.8122 10.7961 93.1573 10.7961C93.3117 10.7961 93.4479 10.778 93.5569 10.7507L93.5842 11.4323C93.4116 11.4959 93.1755 11.5322 92.8939 11.5322C92.1946 11.5322 91.7677 11.1415 91.7677 10.1237V8.09724H91.1773V7.42479H91.7677V6.68872L92.6396 6.42519V7.42479H93.6205V8.09724ZM98.3433 11.4413H97.4532V9.15136C97.4532 8.43347 97.1808 8.06998 96.6449 8.06998C96.1817 8.06998 95.7548 8.38803 95.7548 9.02414V11.4504H94.8648V5.58008H95.7548V7.99728H95.773C96.0545 7.56109 96.4632 7.343 96.9809 7.343C97.8347 7.343 98.3524 8.00637 98.3524 9.0514L98.3433 11.4413ZM103.184 9.65116H100.505C100.523 10.4145 101.023 10.8416 101.767 10.8416C102.167 10.8416 102.53 10.778 102.848 10.6508L102.984 11.2687C102.603 11.4323 102.158 11.514 101.64 11.514C100.387 11.514 99.6421 10.7234 99.6421 9.48759C99.6421 8.25172 100.405 7.33391 101.54 7.33391C102.567 7.33391 103.211 8.09724 103.211 9.24223C103.22 9.37854 103.211 9.51485 103.184 9.65116ZM102.367 9.01505C102.367 8.39712 102.058 7.96093 101.486 7.96093C100.977 7.96093 100.568 8.40621 100.514 9.01505H102.367Z" fill="#fff"/><defs><linearGradient id="paint0_linear" x1="84.271" y1="34.157" x2="84.271" y2="-457.487" gradientUnits="userSpaceOnUse"><stop stop-color="#1A1A1A" stop-opacity=".1"/><stop offset=".123" stop-color="#212121" stop-opacity=".151"/><stop offset=".308" stop-color="#353635" stop-opacity=".227"/><stop offset=".532" stop-color="#575858" stop-opacity=".318"/><stop offset=".783" stop-color="#858585" stop-opacity=".421"/><stop offset="1" stop-color="#B4B4B4" stop-opacity=".51"/></linearGradient></defs></svg>