<svg xmlns="http://www.w3.org/2000/svg" xmlns:xlink="http://www.w3.org/1999/xlink" viewBox="0 0 16 20"><defs><style>.cls-1{fill:url(#linear-gradient);}</style><linearGradient id="linear-gradient" x1="2.18" y1="3.53" x2="12.37" y2="13.71" gradientUnits="userSpaceOnUse"><stop offset="0" stop-color="#e1b8ff"/><stop offset="1" stop-color="#a6a9ff"/></linearGradient></defs><g id="Layer_2" data-name="Layer 2"><g id="Layer_3" data-name="Layer 3"><g id="_24x24" data-name="24x24"><path class="cls-1" d="M15.79,7.1A1.91,1.91,0,0,0,14.06,6h-2.9L13,3a2,2,0,0,0-1.72-3H6.54A2,2,0,0,0,4.86.91L.23,8.05a2.08,2.08,0,0,0,.07,2A1.9,1.9,0,0,0,1.93,11H6.3L4.69,18.8a1,1,0,0,0,.53,1.09.87.87,0,0,0,.44.11,1,1,0,0,0,.76-.34L15.57,9.25A2,2,0,0,0,15.79,7.1Z"/></g></g></g></svg>