<svg xmlns="http://www.w3.org/2000/svg" xmlns:xlink="http://www.w3.org/1999/xlink" viewBox="0 0 20 20"><defs><style>.cls-1{fill:url(#linear-gradient);}.cls-2{fill:url(#linear-gradient-2);}</style><linearGradient id="linear-gradient" x1="4.89" y1="2.69" x2="15.83" y2="13.63" gradientUnits="userSpaceOnUse"><stop offset="0" stop-color="#0cbdfd"/><stop offset="1" stop-color="#209ffd"/></linearGradient><linearGradient id="linear-gradient-2" x1="-2.21" y1="2.79" x2="14.71" y2="19.71" gradientUnits="userSpaceOnUse"><stop offset="0" stop-color="#cfdef2"/><stop offset="1" stop-color="#a2a6d3"/></linearGradient></defs><g id="Layer_2" data-name="Layer 2"><g id="Layer_3" data-name="Layer 3"><g id="_24x24" data-name="24x24"><path class="cls-1" d="M19.65,4.88A2,2,0,0,0,18,4H4A1,1,0,0,0,3,5v8a1,1,0,0,0,1,1h9.39A5,5,0,0,0,18,11l1.9-4.31A2,2,0,0,0,19.65,4.88Z"/><path class="cls-2" d="M16,16H6a1,1,0,0,1-1-1V3A3,3,0,0,0,2,0H1A1,1,0,0,0,1,2H2A1,1,0,0,1,3,3V15a3,3,0,0,0,3,3H9v1a1,1,0,0,0,2,0V18h2v1a1,1,0,0,0,2,0V18h1a1,1,0,0,0,0-2Z"/></g></g></g></svg>