<svg xmlns="http://www.w3.org/2000/svg" xmlns:xlink="http://www.w3.org/1999/xlink" viewBox="0 0 16 20"><defs><style>.cls-1{fill:url(#linear-gradient);}.cls-2{fill:url(#linear-gradient-2);}.cls-3{fill:url(#linear-gradient-3);}</style><linearGradient id="linear-gradient" x1="2.07" y1="2.62" x2="13.93" y2="14.48" gradientUnits="userSpaceOnUse"><stop offset="0" stop-color="#c76cab"/><stop offset="1" stop-color="#824c9e"/></linearGradient><linearGradient id="linear-gradient-2" x1="4.79" y1="7.79" x2="11.21" y2="14.21" gradientUnits="userSpaceOnUse"><stop offset="0" stop-color="#ffffd4"/><stop offset="1" stop-color="#d5add1"/></linearGradient><linearGradient id="linear-gradient-3" x1="5.19" y1="13.81" x2="10.81" y2="19.43" gradientUnits="userSpaceOnUse"><stop offset="0" stop-color="#7d6bb0"/><stop offset="1" stop-color="#be88bc"/></linearGradient></defs><g id="Layer_2" data-name="Layer 2"><g id="Layer_3" data-name="Layer 3"><g id="_24x24" data-name="24x24"><path class="cls-1" d="M8,0A8,8,0,0,0,4,14.93V16a1,1,0,0,0,1,1h6a1,1,0,0,0,1-1V14.93A8,8,0,0,0,8,0Z"/><path class="cls-2" d="M11.71,8.29a1,1,0,0,0-1.42,0L8,10.59,5.71,8.29A1,1,0,0,0,4.29,9.71L7,12.41V16a1,1,0,0,0,2,0V12.41l2.71-2.7A1,1,0,0,0,11.71,8.29Z"/><path class="cls-3" d="M12,15H4v2a3,3,0,0,0,3,3H9a3,3,0,0,0,3-3Z"/></g></g></g></svg>