<svg xmlns="http://www.w3.org/2000/svg" xmlns:xlink="http://www.w3.org/1999/xlink" viewBox="0 0 20 16"><defs><style>.cls-1{fill:url(#linear-gradient);}.cls-2{fill:url(#linear-gradient-2);}</style><linearGradient id="linear-gradient" x1="2.16" y1="-0.04" x2="17.84" y2="15.64" gradientUnits="userSpaceOnUse"><stop offset="0" stop-color="#6be8a7"/><stop offset="1" stop-color="#01b59c"/></linearGradient><linearGradient id="linear-gradient-2" x1="5.72" y1="3.83" x2="14.28" y2="12.38" gradientUnits="userSpaceOnUse"><stop offset="0" stop-color="#effff4"/><stop offset="1" stop-color="#d1ffec"/></linearGradient></defs><g id="Layer_2" data-name="Layer 2"><g id="Layer_3" data-name="Layer 3"><g id="_24x24" data-name="24x24"><path class="cls-1" d="M17.92.52A11.66,11.66,0,0,0,14,0,11.49,11.49,0,0,0,10,.92,11.49,11.49,0,0,0,6.05,0a11.63,11.63,0,0,0-4,.51A3,3,0,0,0,0,3.38v8.87a3,3,0,0,0,1.09,2.3,3.05,3.05,0,0,0,2.54.63A9.09,9.09,0,0,1,6,15a9.47,9.47,0,0,1,3.62.9,1,1,0,0,0,.86,0,9.47,9.47,0,0,1,3.62-.9,9.09,9.09,0,0,1,2.32.18,3.06,3.06,0,0,0,2.54-.63A3,3,0,0,0,20,12.25V3.38A3,3,0,0,0,17.92.52Z"/><path class="cls-2" d="M11,.55V15.66l-.57.24a1,1,0,0,1-.86,0L9,15.66V.55c.34.11.67.23,1,.37C10.33.78,10.66.66,11,.55Z"/></g></g></g></svg>