<svg xmlns="http://www.w3.org/2000/svg" xmlns:xlink="http://www.w3.org/1999/xlink" viewBox="0 0 18 18"><defs><style>.cls-1{fill:url(#linear-gradient);}</style><linearGradient id="linear-gradient" x1="2.07" y1="3.32" x2="15.93" y2="17.18" gradientUnits="userSpaceOnUse"><stop offset="0" stop-color="#fd0"/><stop offset="1" stop-color="#feb100"/></linearGradient></defs><g id="Layer_2" data-name="Layer 2"><g id="Layer_3" data-name="Layer 3"><g id="_24x24" data-name="24x24"><path class="cls-1" d="M17.83,5.44A2.44,2.44,0,0,0,15.77,4H12.1l-1-2.6a2.21,2.21,0,0,0-4.11,0L5.88,4H2.24A2.42,2.42,0,0,0,.18,5.45,2.23,2.23,0,0,0,.64,7.88L3,10.3,1.66,15.15a2.22,2.22,0,0,0,.84,2.43,2.18,2.18,0,0,0,2.52,0L8.88,15a.2.2,0,0,1,.23,0L13,17.62a2.19,2.19,0,0,0,2.52,0,2.22,2.22,0,0,0,.84-2.43L15,10.3l2.39-2.43A2.25,2.25,0,0,0,17.83,5.44Z"/></g></g></g></svg>