<svg xmlns="http://www.w3.org/2000/svg" xmlns:xlink="http://www.w3.org/1999/xlink" viewBox="0 0 18 18"><defs><style>.cls-1{fill:url(#linear-gradient);}.cls-2{fill:url(#linear-gradient-2);}.cls-3{fill:url(#linear-gradient-3);}</style><linearGradient id="linear-gradient" x1="0.88" y1="0.88" x2="13.12" y2="13.12" gradientUnits="userSpaceOnUse"><stop offset="0" stop-color="#00c0ff"/><stop offset="1" stop-color="#1f9bff"/></linearGradient><linearGradient id="linear-gradient-2" x1="9.79" y1="9.79" x2="16.53" y2="16.53" xlink:href="#linear-gradient"/><linearGradient id="linear-gradient-3" x1="5.29" y1="5.29" x2="8.71" y2="8.71" gradientUnits="userSpaceOnUse"><stop offset="0" stop-color="#eaf6ff"/><stop offset="1" stop-color="#addcff"/></linearGradient></defs><g id="Layer_2" data-name="Layer 2"><g id="Layer_3" data-name="Layer 3"><g id="_24x24" data-name="24x24"><rect class="cls-1" width="14" height="14" rx="3"/><path class="cls-2" d="M13,18H4a1,1,0,0,1,0-2h9a3,3,0,0,0,3-3V4a1,1,0,0,1,2,0v9A5,5,0,0,1,13,18Z"/><path class="cls-3" d="M9,6H8V5A1,1,0,0,0,6,5V6H5A1,1,0,0,0,5,8H6V9A1,1,0,0,0,8,9V8H9A1,1,0,0,0,9,6Z"/></g></g></g></svg>