<svg xmlns="http://www.w3.org/2000/svg" xmlns:xlink="http://www.w3.org/1999/xlink" viewBox="0 0 18 18"><defs><style>.cls-1{fill:url(#linear-gradient);}.cls-2{fill:url(#linear-gradient-2);}.cls-3{fill:url(#linear-gradient-3);}</style><linearGradient id="linear-gradient" x1="1.59" y1="1.59" x2="16.41" y2="16.41" gradientUnits="userSpaceOnUse"><stop offset="0" stop-color="#effff4"/><stop offset="1" stop-color="#d1ffec"/></linearGradient><linearGradient id="linear-gradient-2" x1="10.59" y1="4.59" x2="13.41" y2="7.41" gradientUnits="userSpaceOnUse"><stop offset="0" stop-color="#fd0"/><stop offset="1" stop-color="#feb100"/></linearGradient><linearGradient id="linear-gradient-3" x1="0.88" y1="0.88" x2="17.12" y2="17.12" gradientUnits="userSpaceOnUse"><stop offset="0" stop-color="#6be8a7"/><stop offset="1" stop-color="#01b59c"/></linearGradient></defs><g id="Layer_2" data-name="Layer 2"><g id="Layer_3" data-name="Layer 3"><g id="_24x24" data-name="24x24"><rect class="cls-1" x="1" y="1" width="16" height="16" rx="2"/><circle class="cls-2" cx="12" cy="6" r="2"/><path class="cls-3" d="M15,0H3A3,3,0,0,0,0,3V15H0a3,3,0,0,0,3,3H15a3,3,0,0,0,3-3V3A3,3,0,0,0,15,0Zm1,15a1,1,0,0,1-.67.93L8.52,9.4A5.13,5.13,0,0,0,2,9V3A1,1,0,0,1,3,2H15a1,1,0,0,1,1,1Z"/></g></g></g></svg>