<svg xmlns="http://www.w3.org/2000/svg" xmlns:xlink="http://www.w3.org/1999/xlink" viewBox="0 0 20 20"><defs><style>.cls-1{fill:url(#linear-gradient);}.cls-2{fill:url(#linear-gradient-2);}.cls-3{fill:url(#linear-gradient-3);}.cls-4{fill:url(#linear-gradient-4);}</style><linearGradient id="linear-gradient" x1="8.38" y1="0.38" x2="20.56" y2="12.56" gradientUnits="userSpaceOnUse"><stop offset="0" stop-color="#eaf6ff"/><stop offset="1" stop-color="#addcff"/></linearGradient><linearGradient id="linear-gradient-2" x1="0.16" y1="5.6" x2="11.9" y2="17.34" gradientUnits="userSpaceOnUse"><stop offset="0" stop-color="#00c0ff"/><stop offset="1" stop-color="#1f9bff"/></linearGradient><linearGradient id="linear-gradient-3" x1="5.29" y1="7.29" x2="8.71" y2="10.71" xlink:href="#linear-gradient"/><linearGradient id="linear-gradient-4" x1="5.29" y1="10.29" x2="8.71" y2="13.71" xlink:href="#linear-gradient"/></defs><g id="Layer_2" data-name="Layer 2"><g id="Layer_3" data-name="Layer 3"><g id="_24x24" data-name="24x24"><path class="cls-1" d="M17,0H10A3,3,0,0,0,7,3V8a3,3,0,0,0,3,3h5a1,1,0,0,1,.79.39l1.37,1.8a1.48,1.48,0,0,0,1.32.81l.28,0A1.47,1.47,0,0,0,20,12.5V3A3,3,0,0,0,17,0Z"/><path class="cls-2" d="M11,4H3A3,3,0,0,0,0,7V18.5A1.47,1.47,0,0,0,1.23,20l.28,0a1.48,1.48,0,0,0,1.32-.81l1.37-1.8A1,1,0,0,1,5,17h6a3,3,0,0,0,3-3V7A3,3,0,0,0,11,4Z"/><path class="cls-3" d="M9,10H5A1,1,0,0,1,5,8H9a1,1,0,0,1,0,2Z"/><path class="cls-4" d="M9,13H5a1,1,0,0,1,0-2H9a1,1,0,0,1,0,2Z"/></g></g></g></svg>