<svg xmlns="http://www.w3.org/2000/svg" xmlns:xlink="http://www.w3.org/1999/xlink" viewBox="0 0 20 20"><defs><style>.cls-1{fill:url(#linear-gradient);}.cls-2{fill:url(#linear-gradient-2);}.cls-3{fill:url(#linear-gradient-3);}</style><linearGradient id="linear-gradient" x1="2.93" y1="2.93" x2="17.07" y2="17.07" gradientUnits="userSpaceOnUse"><stop offset="0" stop-color="#3fa9f5"/><stop offset="1" stop-color="#4379bd"/></linearGradient><linearGradient id="linear-gradient-2" x1="4.82" y1="9.9" x2="10.1" y2="15.18" gradientUnits="userSpaceOnUse"><stop offset="0" stop-color="#d8f0f7"/><stop offset="1" stop-color="#c1e8fb"/></linearGradient><linearGradient id="linear-gradient-3" x1="9.9" y1="4.82" x2="15.18" y2="10.1" gradientUnits="userSpaceOnUse"><stop offset="0" stop-color="#3fa9f5"/><stop offset="0" stop-color="#d2edf7"/><stop offset="1" stop-color="#c4e8f9"/></linearGradient></defs><g id="Layer_2" data-name="Layer 2"><g id="Layer_3" data-name="Layer 3"><g id="_24x24" data-name="24x24"><circle class="cls-1" cx="10" cy="10" r="10"/><path class="cls-2" d="M6.65,8.07l5.28,5.28a4.88,4.88,0,0,1-1.17.57l-2.9,1a2.37,2.37,0,0,1-.69.11,2.13,2.13,0,0,1-1.53-.64,2.15,2.15,0,0,1-.53-2.22l1-2.9A4.88,4.88,0,0,1,6.65,8.07Z"/><path class="cls-3" d="M14.89,7.86l-1,2.9a4.88,4.88,0,0,1-.57,1.17L8.07,6.65a4.88,4.88,0,0,1,1.17-.57l2.9-1a2.18,2.18,0,0,1,2.75,2.75Z"/></g></g></g></svg>