<svg xmlns="http://www.w3.org/2000/svg" xmlns:xlink="http://www.w3.org/1999/xlink" viewBox="0 0 16 20"><defs><style>.cls-1{fill:url(#linear-gradient);}.cls-2{fill:url(#linear-gradient-2);}.cls-3{fill:url(#linear-gradient-3);}</style><linearGradient id="linear-gradient" x1="1.38" y1="2.38" x2="16.62" y2="17.62" gradientUnits="userSpaceOnUse"><stop offset="0" stop-color="#fff1f3"/><stop offset="1" stop-color="#ffd3da"/></linearGradient><linearGradient id="linear-gradient-2" x1="2.51" y1="6.7" x2="9.11" y2="13.3" gradientUnits="userSpaceOnUse"><stop offset="0" stop-color="#ffa58d"/><stop offset="1" stop-color="#fe848a"/></linearGradient><linearGradient id="linear-gradient-3" x1="1.38" y1="2.38" x2="16.62" y2="17.62" xlink:href="#linear-gradient-2"/></defs><g id="Layer_2" data-name="Layer 2"><g id="Layer_3" data-name="Layer 3"><g id="_24x24" data-name="24x24"><rect class="cls-1" x="2" width="14" height="20" rx="3"/><path class="cls-2" d="M11,9H3.21L4.65,7.76a1,1,0,0,0-1.3-1.52L.69,8.54a1.89,1.89,0,0,0,0,2.92l2.66,2.3a1,1,0,1,0,1.3-1.52L3.21,11H11a1,1,0,0,0,0-2Z"/><path class="cls-3" d="M13,20H5a3,3,0,0,1-3-3V16a1,1,0,0,1,2,0v1a1,1,0,0,0,1,1h8a1,1,0,0,0,1-1V3a1,1,0,0,0-1-1H5A1,1,0,0,0,4,3V4A1,1,0,0,1,2,4V3A3,3,0,0,1,5,0h8a3,3,0,0,1,3,3V17A3,3,0,0,1,13,20Z"/></g></g></g></svg>