<svg width="115" height="35" viewBox="0 0 115 35" fill="none" xmlns="http://www.w3.org/2000/svg"><path d="M110.745 34.07H4.3605C1.97768 34.07 0.105469 32.1963 0.105469 29.8115V4.25847C0.105469 1.87373 1.97768 0 4.3605 0H110.745C113.128 0 115 1.87373 115 4.25847V29.8115C115 32.1963 113.128 34.07 110.745 34.07Z" fill="#010101"/><path d="M110.745 0.681355C112.704 0.681355 114.32 2.30071 114.32 4.25847V29.8115C114.32 31.7716 112.702 33.3886 110.745 33.3886H4.3605C2.40205 33.3886 0.786274 31.7693 0.786274 29.8115V4.25847C0.786274 2.29844 2.40432 0.681355 4.3605 0.681355H110.745ZM110.745 0H4.3605C1.97768 0 0.105469 1.96003 0.105469 4.25847V29.8115C0.105469 32.1963 1.97768 34.07 4.3605 34.07H110.745C113.128 34.07 115 32.1963 115 29.8115V4.25847C115 1.96003 113.128 0 110.745 0Z" fill="#A7A6A6"/><path d="M40.4447 8.6877C40.4447 9.36905 40.2745 9.96637 39.8479 10.3911C39.3373 10.9021 38.7405 11.1587 37.9757 11.1587C37.2086 11.1587 36.6141 10.9021 36.1035 10.3911C35.5929 9.88007 35.3364 9.28275 35.3364 8.51736C35.3364 7.75197 35.5929 7.15465 36.1035 6.64364C36.6141 6.13262 37.2109 5.87598 37.9757 5.87598C38.3161 5.87598 38.6565 5.96228 38.9969 6.13262C39.3373 6.30296 39.5937 6.4733 39.7639 6.72994L39.3373 7.15692C38.9969 6.72994 38.5703 6.5596 37.9757 6.5596C37.4651 6.5596 36.9545 6.72994 36.6141 7.15692C36.1874 7.4976 36.0172 8.00862 36.0172 8.60594C36.0172 9.20326 36.1874 9.71427 36.6141 10.0549C37.0407 10.3956 37.4651 10.6523 37.9757 10.6523C38.5725 10.6523 38.9969 10.4819 39.4235 10.0549C39.68 9.79831 39.8502 9.45763 39.8502 9.03292H37.978V8.35156H40.447V8.6877H40.4447ZM44.3594 6.5596H42.0605V8.17668H44.1892V8.774H42.0605V10.3934H44.3594V11.0747H41.3797V5.96455H44.3594V6.5596ZM47.1688 11.0724H46.488V6.5596H45.0402V5.96228H48.6144V6.5596H47.1665V11.0724H47.1688ZM51.0835 11.0724V5.96228H51.7643V11.0724H51.0835ZM54.6577 11.0724H53.9769V6.5596H52.529V5.96228H56.0193V6.5596H54.5714V11.0747H54.6577V11.0724ZM62.7434 10.3911C62.2328 10.9021 61.6359 11.1587 60.8712 11.1587C60.1064 11.1587 59.5096 10.9021 58.9989 10.3911C58.4883 9.88007 58.2319 9.28275 58.2319 8.51736C58.2319 7.75197 58.4883 7.15465 58.9989 6.64364C59.5096 6.13262 60.1064 5.87598 60.8712 5.87598C61.6382 5.87598 62.2328 6.13262 62.7434 6.64364C63.254 7.15465 63.5104 7.75197 63.5104 8.51736C63.5104 9.28275 63.254 9.88007 62.7434 10.3911ZM59.5096 9.96637C59.85 10.3071 60.3606 10.5637 60.8712 10.5637C61.3818 10.5637 61.8924 10.3934 62.2328 9.96637C62.5732 9.6257 62.8296 9.11468 62.8296 8.51736C62.8296 7.92004 62.6594 7.40902 62.2328 7.06835C61.8924 6.72767 61.3818 6.47103 60.8712 6.47103C60.3606 6.47103 59.85 6.64136 59.5096 7.06835C59.1691 7.40902 58.9127 7.92004 58.9127 8.51736C58.9127 9.11468 59.0829 9.6257 59.5096 9.96637ZM64.4454 11.0724V5.96228H65.2124L67.6815 9.96637V5.96228H68.3623V11.0724H67.6815L65.0422 6.89801V11.0724H64.4454Z" fill="#fff" stroke="#fff" stroke-width=".2" stroke-miterlimit="10"/><path d="M58.0619 18.5692C56.0195 18.5692 54.4014 20.1023 54.4014 22.2326C54.4014 24.2767 56.0195 25.896 58.0619 25.896C60.1043 25.896 61.7223 24.363 61.7223 22.2326C61.7223 20.0159 60.1043 18.5692 58.0619 18.5692ZM58.0619 24.3607C56.9544 24.3607 56.0195 23.4227 56.0195 22.1463C56.0195 20.8699 56.9567 19.9319 58.0619 19.9319C59.1693 19.9319 60.1043 20.7836 60.1043 22.1463C60.1043 23.4227 59.1693 24.3607 58.0619 24.3607ZM50.1464 18.5692C48.104 18.5692 46.4859 20.1023 46.4859 22.2326C46.4859 24.2767 48.104 25.896 50.1464 25.896C52.1888 25.896 53.8069 24.363 53.8069 22.2326C53.8069 20.0159 52.1911 18.5692 50.1464 18.5692ZM50.1464 24.3607C49.0389 24.3607 48.104 23.4227 48.104 22.1463C48.104 20.8699 49.0412 19.9319 50.1464 19.9319C51.2516 19.9319 52.1888 20.7836 52.1888 22.1463C52.1911 23.4227 51.2538 24.3607 50.1464 24.3607ZM40.7014 19.6753V21.2083H44.3618C44.2756 22.06 43.9352 22.7414 43.5108 23.1683C43.0002 23.6794 42.1492 24.2767 40.7014 24.2767C38.4025 24.2767 36.7005 22.487 36.7005 20.1886C36.7005 17.8901 38.4887 16.1004 40.7014 16.1004C41.8928 16.1004 42.83 16.6114 43.5108 17.2088L44.6183 16.1004C43.681 15.2487 42.4896 14.5674 40.7876 14.5674C37.724 14.5674 35.0847 17.1225 35.0847 20.1886C35.0847 23.2547 37.724 25.8097 40.7876 25.8097C42.4896 25.8097 43.681 25.2987 44.7022 24.1904C45.7234 23.1683 46.0638 21.7193 46.0638 20.6133C46.0638 20.2726 46.0638 19.9319 45.9776 19.6753H40.7014ZM79.3393 20.8676C78.9989 20.0159 78.1479 18.5669 76.2757 18.5669C74.4035 18.5669 72.8717 20.0159 72.8717 22.2304C72.8717 24.2744 74.4035 25.8938 76.4459 25.8938C78.0639 25.8938 79.0851 24.8717 79.4255 24.2744L78.2341 23.4227C77.8075 24.02 77.2969 24.4448 76.4459 24.4448C75.5949 24.4448 75.0843 24.1041 74.6576 23.3364L79.5095 21.2924L79.3393 20.8676ZM74.4035 22.06C74.4035 20.6973 75.5109 19.9296 76.2757 19.9296C76.8725 19.9296 77.4671 20.2703 77.6373 20.6973L74.4035 22.06ZM70.4026 25.5531H72.0207V14.9058H70.4026V25.5531ZM67.8496 19.3346C67.423 18.9076 66.7421 18.4829 65.8911 18.4829C64.1029 18.4829 62.4009 20.1023 62.4009 22.1463C62.4009 24.1904 64.0189 25.7234 65.8911 25.7234C66.7421 25.7234 67.423 25.2964 67.7634 24.8717H67.8496V25.3828C67.8496 26.7455 67.0826 27.5131 65.8911 27.5131C64.9539 27.5131 64.2731 26.8318 64.1029 26.2344L62.7413 26.8318C63.1679 27.7698 64.1891 28.9621 65.9751 28.9621C67.8473 28.9621 69.3791 27.8538 69.3791 25.2147V18.7418H67.8473L67.8496 19.3346ZM65.9774 24.3607C64.8699 24.3607 63.935 23.4227 63.935 22.1463C63.935 20.8699 64.8722 19.9319 65.9774 19.9319C67.0848 19.9319 67.9358 20.8699 67.9358 22.1463C67.9358 23.4227 67.0848 24.3607 65.9774 24.3607ZM86.7442 14.9058H82.9135V25.5531H84.5316V21.549H86.7442C88.5324 21.549 90.2345 20.2703 90.2345 18.2263C90.2345 16.1822 88.5302 14.9058 86.7442 14.9058ZM86.8282 20.0159H84.5293V16.3548H86.8282C88.0196 16.3548 88.7004 17.3768 88.7004 18.1445C88.6164 19.0802 87.9356 20.0159 86.8282 20.0159ZM96.6159 18.4829C95.4245 18.4829 94.2331 18.9939 93.8064 20.1023L95.2543 20.6996C95.5947 20.1023 96.1053 19.9319 96.7021 19.9319C97.5531 19.9319 98.3201 20.4429 98.4041 21.2946V21.3809C98.1477 21.2106 97.4669 20.9539 96.7861 20.9539C95.2543 20.9539 93.7224 21.8056 93.7224 23.3387C93.7224 24.7877 95.0001 25.7234 96.3617 25.7234C97.4691 25.7234 97.9797 25.2124 98.4041 24.7014H98.4903V25.5531H100.022V21.465C99.8497 19.5912 98.4041 18.4829 96.6159 18.4829ZM96.4457 24.3607C95.9351 24.3607 95.168 24.1041 95.168 23.4227C95.168 22.571 96.1053 22.3144 96.87 22.3144C97.5508 22.3144 97.8912 22.4847 98.3179 22.6551C98.1477 23.6794 97.2967 24.3607 96.4457 24.3607ZM105.382 18.7395L103.594 23.3387H103.508L101.636 18.7395H99.9337L102.743 25.2124L101.125 28.7895H102.743L107.084 18.7395H105.382ZM91.0855 25.5531H92.7035V14.9058H91.0855V25.5531Z" fill="#fff"/><path d="M8.95588 6.38867C8.69944 6.64532 8.61548 7.07003 8.61548 7.58104V26.4046C8.61548 26.9156 8.78568 27.3426 9.04212 27.597L9.12835 27.6833L19.6808 17.1223V16.9519L8.95588 6.38867Z" fill="url(#paint0_linear)"/><path d="M23.0823 20.6979L19.592 17.2048V16.9482L23.0823 13.4551L23.1685 13.5414L27.3396 15.9261C28.531 16.6075 28.531 17.7158 27.3396 18.3972L23.0823 20.6979Z" fill="url(#paint1_linear)"/><path d="M23.1688 20.6142L19.5945 17.0371L8.95581 27.6844C9.38245 28.1114 9.97702 28.1114 10.7441 27.7707L23.1688 20.6142Z" fill="url(#paint2_linear)"/><path d="M23.1688 13.4599L10.7419 6.38971C9.97482 5.96273 9.38025 6.04903 8.95361 6.47601L19.5923 17.037L23.1688 13.4599Z" fill="url(#paint3_linear)"/><path opacity=".2" d="M23.0826 20.5273L10.7419 27.5112C10.0611 27.9382 9.46422 27.8519 9.03985 27.5112L8.95361 27.5975L9.03985 27.6838C9.46649 28.0245 10.0611 28.1108 10.7419 27.6838L23.0826 20.5273Z" fill="#010101"/><path opacity=".12" d="M8.95588 27.5141C8.69944 27.2574 8.61548 26.8327 8.61548 26.3217V26.408C8.61548 26.919 8.78568 27.346 9.04212 27.6004V27.5141H8.95588ZM27.3399 18.1432L23.0849 20.5279L23.1711 20.6142L27.3422 18.2295C27.939 17.8888 28.1932 17.4618 28.1932 17.0371C28.1909 17.4618 27.8505 17.8025 27.3399 18.1432Z" fill="#010101"/><path opacity=".25" d="M10.7422 6.47241L27.3379 15.9273C27.8485 16.268 28.1889 16.6087 28.1889 17.0357C28.1889 16.6087 27.9325 16.184 27.3379 15.8433L10.7422 6.38838C9.55077 5.70702 8.61353 6.21804 8.61353 7.58075V7.66705C8.61579 6.38838 9.55077 5.79106 10.7422 6.47241Z" fill="#fff"/><defs><linearGradient id="paint0_linear" x1="18.656" y1="7.408" x2="4.36" y2="21.691" gradientUnits="userSpaceOnUse"><stop stop-color="#4998D3"/><stop offset=".007" stop-color="#4A99D3"/><stop offset=".26" stop-color="#42BAEB"/><stop offset=".512" stop-color="#41C7F2"/><stop offset=".76" stop-color="#56C9E9"/><stop offset="1" stop-color="#5BCAE8"/></linearGradient><linearGradient id="paint1_linear" x1="28.901" y1="17.072" x2="8.308" y2="17.072" gradientUnits="userSpaceOnUse"><stop stop-color="#FEE000"/><stop offset=".409" stop-color="#FEBD11"/><stop offset=".775" stop-color="#FAA51A"/><stop offset="1" stop-color="#F99C1C"/></linearGradient><linearGradient id="paint2_linear" x1="21.226" y1="18.975" x2="1.841" y2="38.344" gradientUnits="userSpaceOnUse"><stop stop-color="#EF4049"/><stop offset="1" stop-color="#C31E63"/></linearGradient><linearGradient id="paint3_linear" x1="6.286" y1=".174" x2="14.943" y2="8.824" gradientUnits="userSpaceOnUse"><stop stop-color="#32A072"/><stop offset=".069" stop-color="#2DA771"/><stop offset=".476" stop-color="#4BBA71"/><stop offset=".801" stop-color="#5EBD6B"/><stop offset="1" stop-color="#66BE69"/></linearGradient></defs></svg>