<?xml version="1.0" encoding="utf-8"?>
<!-- Generator: Adobe Illustrator 25.4.1, SVG Export Plug-In . SVG Version: 6.00 Build 0)  -->
<svg version="1.1" id="Layer_1" xmlns="http://www.w3.org/2000/svg" xmlns:xlink="http://www.w3.org/1999/xlink" x="0px" y="0px"
	 viewBox="0 0 20 20" style="enable-background:new 0 0 20 20;" xml:space="preserve">
<style type="text/css">
	.st0{fill:url(#SVGID_1_);}
	.st1{fill:url(#SVGID_00000052820650860018262200000015840978619305341825_);}
</style>
<g id="Layer_2_00000114049525432920105280000008070591736665667469_">
	<g id="Layer_3">
		<g id="_24x24">
			
				<linearGradient id="SVGID_1_" gradientUnits="userSpaceOnUse" x1="2.9289" y1="19.0711" x2="17.0711" y2="4.9289" gradientTransform="matrix(1 0 0 -1 0 22)">
				<stop  offset="0" style="stop-color:#C663FF"/>
				<stop  offset="1" style="stop-color:#8D2EE4"/>
			</linearGradient>
			<circle class="st0" cx="10" cy="10" r="10"/>
			
				<linearGradient id="SVGID_00000115513219103142534410000011404189202231687847_" gradientUnits="userSpaceOnUse" x1="5.9518" y1="15.3148" x2="14.0438" y2="7.2228" gradientTransform="matrix(1 0 0 -1 0 22)">
				<stop  offset="0" style="stop-color:#FFFFFF"/>
				<stop  offset="1" style="stop-color:#FFFFFF"/>
			</linearGradient>
			<path style="fill:url(#SVGID_00000115513219103142534410000011404189202231687847_);" d="M15.1,8c-0.2-0.5-0.7-0.9-1.2-0.9h-2.1
				l-0.6-1.5c-0.3-0.7-1-1-1.7-0.7C9.2,5,8.9,5.2,8.8,5.6L8.2,7.1H6.1C5.5,7.1,5,7.5,4.9,8C4.7,8.4,4.8,9,5.1,9.3l1.4,1.5l-0.8,2.8
				c-0.2,0.5,0,1.1,0.5,1.4c0.4,0.3,1,0.4,1.5,0.1l2.2-1.5h0.2l2.2,1.5l0.7,0.2c0.3,0,0.6-0.1,0.8-0.3c0.5-0.3,0.7-0.8,0.5-1.4
				l-0.8-2.8l1.4-1.5C15.2,9,15.3,8.4,15.1,8z"/>
		</g>
	</g>
</g>
</svg>
