<svg xmlns="http://www.w3.org/2000/svg" xmlns:xlink="http://www.w3.org/1999/xlink" viewBox="0 0 20 20"><defs><style>.cls-1{fill:url(#linear-gradient);}</style><linearGradient id="linear-gradient" x1="2.93" y1="2.93" x2="17.07" y2="17.07" gradientUnits="userSpaceOnUse"><stop offset="0" stop-color="#fd0"/><stop offset="1" stop-color="#feb100"/></linearGradient></defs><g id="Layer_2" data-name="Layer 2"><g id="Layer_3" data-name="Layer 3"><g id="_24x24" data-name="24x24"><path class="cls-1" d="M20,10a3,3,0,0,0-2.57-3,1.42,1.42,0,0,0-.08-.18,3,3,0,0,0-.28-3.92A2.93,2.93,0,0,0,15,2.05h0a3,3,0,0,0-1.79.6L13,2.57A3,3,0,0,0,7,2.57l-.19.08a3,3,0,0,0-1.79-.6H5a2.93,2.93,0,0,0-2.11.88,3,3,0,0,0-.28,3.92A1.42,1.42,0,0,0,2.57,7a3,3,0,0,0,0,5.94c0,.06.05.13.08.19A2.92,2.92,0,0,0,2.05,15a3,3,0,0,0,.88,2.12,3,3,0,0,0,3.92.28l.18.08a3,3,0,0,0,5.94,0l.18-.08a3,3,0,0,0,3.92-.28A3,3,0,0,0,18,15a2.92,2.92,0,0,0-.6-1.79c0-.06,0-.13.08-.19A3,3,0,0,0,20,10ZM10,13a3,3,0,1,1,3-3A3,3,0,0,1,10,13Z"/></g></g></g></svg>