<svg xmlns="http://www.w3.org/2000/svg" xmlns:xlink="http://www.w3.org/1999/xlink" viewBox="0 0 18 18"><defs><style>.cls-1{fill:url(#linear-gradient);}.cls-2{fill:url(#linear-gradient-2);}</style><linearGradient id="linear-gradient" x1="6.01" y1="3.65" x2="14.35" y2="11.99" gradientUnits="userSpaceOnUse"><stop offset="0" stop-color="#6be8a7"/><stop offset="1" stop-color="#01b59c"/></linearGradient><linearGradient id="linear-gradient-2" x1="12.79" y1="3.79" x2="14.21" y2="5.21" gradientUnits="userSpaceOnUse"><stop offset="0" stop-color="#effff4"/><stop offset="1" stop-color="#d1ffec"/></linearGradient></defs><g id="Layer_2" data-name="Layer 2"><g id="Layer_3" data-name="Layer 3"><g id="_24x24" data-name="24x24"><path class="cls-1" d="M16,0H10.89a3,3,0,0,0-2.1.87L.87,8.79A3,3,0,0,0,.87,13L5,17.13a3,3,0,0,0,4.21,0l7.92-7.92A3,3,0,0,0,18,7.11V2A2,2,0,0,0,16,0Z"/><path class="cls-2" d="M13,6a1,1,0,0,1-.71-.29,1,1,0,0,1,0-1.42l1-1a1,1,0,1,1,1.42,1.42l-1,1A1,1,0,0,1,13,6Z"/></g></g></g></svg>