<svg xmlns="http://www.w3.org/2000/svg" xmlns:xlink="http://www.w3.org/1999/xlink" viewBox="0 0 20 20"><defs><style>.cls-1{fill:url(#linear-gradient);}.cls-2{fill:url(#linear-gradient-2);}.cls-3{fill:url(#linear-gradient-3);}</style><linearGradient id="linear-gradient" x1="2.93" y1="2.93" x2="17.07" y2="17.07" gradientUnits="userSpaceOnUse"><stop offset="0" stop-color="#eaf6ff"/><stop offset="1" stop-color="#addcff"/></linearGradient><linearGradient id="linear-gradient-2" x1="0.79" y1="0.79" x2="17.07" y2="17.07" gradientUnits="userSpaceOnUse"><stop offset="0" stop-color="#00c0ff"/><stop offset="1" stop-color="#1f9bff"/></linearGradient><linearGradient id="linear-gradient-3" x1="8.29" y1="6.29" x2="14.71" y2="12.71" xlink:href="#linear-gradient-2"/></defs><g id="Layer_2" data-name="Layer 2"><g id="Layer_3" data-name="Layer 3"><g id="_24x24" data-name="24x24"><circle class="cls-1" cx="10" cy="10" r="10"/><path class="cls-2" d="M10,0A10,10,0,0,0,3,2.89V1A1,1,0,0,0,1,1V4A2,2,0,0,0,2,5.74H2A2,2,0,0,0,3,6H6A1,1,0,0,0,6,4H4.72A8,8,0,1,1,2,10a1,1,0,0,0-2,0A10,10,0,1,0,10,0Z"/><path class="cls-3" d="M13,14a1,1,0,0,1-.71-.29l-3-3A1,1,0,0,1,9,10V6a1,1,0,0,1,2,0V9.59l2.71,2.7a1,1,0,0,1,0,1.42A1,1,0,0,1,13,14Z"/></g></g></g></svg>